<svg width="173" height="173" viewBox="0 0 173 173" fill="none" xmlns="http://www.w3.org/2000/svg">
<path d="M13.414 77.6976L25.7322 82.42L25.6213 85.3055L12.9774 89.0604L13.0801 86.3883L20.5975 84.326C20.7243 84.2909 20.963 84.2346 21.3137 84.1568C21.6586 84.0789 22.0264 84.0018 22.4169 83.9256C22.8019 83.8435 23.1203 83.7902 23.3721 83.7657C23.123 83.7219 22.8094 83.65 22.4313 83.55C22.0535 83.4443 21.6955 83.3422 21.3573 83.2437C21.0136 83.1393 20.7771 83.0647 20.6477 83.0198L13.3113 80.3697L13.414 77.6976Z" fill="white"/>
<path d="M29.4971 64.5638L27.3555 71.4311L15.4314 67.7126L17.573 60.8453L19.6446 61.4913L18.2915 65.8303L20.9096 66.6468L22.1686 62.6095L24.2402 63.2556L22.9812 67.2928L26.056 68.2517L27.4091 63.9127L29.4971 64.5638Z" fill="white"/>
<path d="M24.1643 47.6056C24.7703 46.6477 25.3852 45.9314 26.0091 45.4567C26.636 44.9772 27.2788 44.7335 27.9375 44.7256C28.5962 44.7178 29.2818 44.9392 29.9941 45.3898C30.4755 45.6944 30.8388 46.0523 31.084 46.4635C31.3293 46.8748 31.4827 47.3089 31.5442 47.7656C31.6057 48.2224 31.6062 48.6743 31.5458 49.1213L38.1089 48.9264L36.5376 51.41L30.8932 51.3673L30.1395 52.5585L34.1898 55.121L32.7738 57.3592L22.2185 50.6812L24.1643 47.6056ZM25.8977 48.9246L25.4683 49.6032L28.3201 51.4075L28.7769 50.6855C29.2458 49.9443 29.4581 49.3372 29.4136 48.8642C29.3673 48.3834 29.1035 47.9907 28.6222 47.6862C28.1216 47.3695 27.6558 47.3174 27.2248 47.53C26.7968 47.7377 26.3544 48.2026 25.8977 48.9246Z" fill="white"/>
<path d="M46.3043 32.1692C47.2282 33.2301 47.7965 34.2948 48.0094 35.3631C48.2228 36.4234 48.1022 37.4687 47.6475 38.4991C47.1891 39.5251 46.4187 40.5094 45.3363 41.452L42.669 43.7748L34.4663 34.3553L37.4236 31.78C38.4115 30.9197 39.4218 30.3496 40.4544 30.0697C41.4832 29.7855 42.4966 29.8131 43.4945 30.1525C44.4887 30.4876 45.4253 31.1598 46.3043 32.1692ZM44.2746 34.0273C43.6686 33.3315 43.0681 32.85 42.4729 32.5828C41.8783 32.3076 41.2877 32.2366 40.7013 32.3697C40.1191 32.499 39.5359 32.8181 38.9518 33.3267L37.8887 34.2525L43.23 40.3861L44.0869 39.6399C45.0619 38.7908 45.5593 37.9007 45.5792 36.9695C45.6034 36.0346 45.1685 35.0539 44.2746 34.0273Z" fill="white"/>
<path d="M63.7559 29.8158L57.2502 32.8855L51.9202 21.5894L58.4259 18.5197L59.3519 20.4822L55.2414 22.4217L56.4117 24.9019L60.2363 23.0973L61.1623 25.0598L57.3377 26.8645L58.7121 29.7773L62.8226 27.8378L63.7559 29.8158Z" fill="white"/>
<path d="M82.145 25.5262L78.8204 26.0534L71.9741 17.5719L71.8982 17.584C71.9822 17.9686 72.0639 18.3564 72.1432 18.7475C72.2225 19.1386 72.3019 19.5297 72.3812 19.9208C72.4596 20.3063 72.5385 20.6945 72.6178 21.0856L73.5383 26.891L71.201 27.2616L69.2449 14.9253L72.5441 14.4021L79.3673 22.7921L79.4264 22.7827C79.3544 22.402 79.2802 22.0245 79.2035 21.6503C79.1269 21.2761 79.0503 20.9019 78.9736 20.5276C78.9026 20.1525 78.8316 19.7774 78.7606 19.4023L77.8347 13.5632L80.1889 13.1899L82.145 25.5262Z" fill="white"/>
<path d="M98.3804 23.2022C98.2863 23.9367 98.0265 24.5522 97.6012 25.049C97.1758 25.5457 96.6025 25.8972 95.8813 26.1034C95.1657 26.3104 94.3221 26.3516 93.3504 26.2271C92.921 26.1721 92.5037 26.0899 92.0986 25.9806C91.6991 25.872 91.3169 25.7398 90.9522 25.584C90.5938 25.4232 90.2556 25.2392 89.9376 25.032L90.2502 22.5914C90.8045 22.9265 91.3846 23.2392 91.9906 23.5292C92.5965 23.8193 93.2102 24.0042 93.8316 24.0838C94.261 24.1388 94.6129 24.1264 94.8872 24.0467C95.1672 23.9678 95.3792 23.837 95.5231 23.6545C95.6671 23.4719 95.7554 23.2536 95.7879 22.9993C95.8278 22.6886 95.7573 22.4097 95.5764 22.1626C95.3956 21.9155 95.1339 21.6724 94.7913 21.4333C94.4544 21.1949 94.0712 20.9362 93.6418 20.6572C93.3711 20.4848 93.0785 20.2808 92.7642 20.0453C92.4505 19.8041 92.1593 19.5227 91.8904 19.2012C91.6215 18.8796 91.4139 18.5057 91.2675 18.0792C91.1276 17.6478 91.0938 17.1497 91.1661 16.5848C91.2609 15.8447 91.5115 15.2337 91.9178 14.7517C92.324 14.2697 92.8584 13.9305 93.521 13.734C94.1899 13.5326 94.9537 13.4869 95.8124 13.5969C96.4565 13.6794 97.0597 13.8342 97.622 14.0612C98.1907 14.2834 98.7762 14.5766 99.3784 14.9408L98.2694 16.8745C97.7284 16.5698 97.24 16.3264 96.8039 16.1442C96.3686 15.9564 95.9165 15.8324 95.4476 15.7723C95.1199 15.7304 94.8334 15.7482 94.588 15.8259C94.3434 15.8979 94.1494 16.0223 94.0062 16.1992C93.8637 16.3705 93.7765 16.5804 93.7447 16.8289C93.707 17.1227 93.7599 17.3821 93.9033 17.6072C94.0532 17.8274 94.2884 18.0528 94.6092 18.2833C94.9355 18.5146 95.3427 18.7879 95.8306 19.103C96.425 19.4835 96.9243 19.8662 97.3286 20.251C97.7393 20.6309 98.0379 21.0568 98.2244 21.5285C98.4116 21.9947 98.4636 22.5526 98.3804 23.2022Z" fill="white"/>
<path d="M111.597 17.5689L115.153 19.1376C116.675 19.8087 117.732 20.5303 118.326 21.3024C118.919 22.0745 118.979 22.9973 118.505 24.0708C118.314 24.5033 118.072 24.8631 117.777 25.1502C117.487 25.4396 117.163 25.6389 116.804 25.7481C116.444 25.8572 116.062 25.8629 115.657 25.7652L115.622 25.8434C115.968 26.0893 116.253 26.3765 116.475 26.7049C116.7 27.0281 116.823 27.4124 116.844 27.8576C116.873 28.2999 116.756 28.8207 116.491 29.42C116.186 30.1131 115.754 30.6325 115.197 30.9782C114.64 31.3238 113.988 31.4905 113.24 31.4782C112.5 31.4629 111.697 31.2645 110.832 30.883L106.556 28.9971L111.597 17.5689ZM112.024 23.1636L113.431 23.7842C114.134 24.0945 114.67 24.1999 115.037 24.1006C115.407 23.996 115.687 23.7275 115.878 23.2949C116.071 22.8572 116.047 22.4733 115.807 22.1432C115.574 21.8101 115.111 21.4908 114.418 21.1851L113.144 20.6231L112.024 23.1636ZM111.175 25.0866L109.862 28.0648L111.441 28.7612C112.17 29.083 112.741 29.1664 113.151 29.0114C113.562 28.8564 113.872 28.5418 114.081 28.0676C114.205 27.7861 114.252 27.511 114.221 27.2422C114.19 26.9734 114.053 26.7135 113.809 26.4627C113.57 26.2141 113.192 25.976 112.676 25.7485L111.175 25.0866Z" fill="white"/>
<path d="M127.505 41.807L128.72 38.9463L125.229 36.0224L122.626 37.72L120.438 35.8878L131.871 29.104L134.353 31.1831L129.693 43.6393L127.505 41.807ZM129.662 36.8375L130.833 34.0292C130.913 33.8442 131.014 33.6049 131.133 33.3113C131.261 33.017 131.388 32.7187 131.515 32.4164C131.65 32.1134 131.771 31.8541 131.877 31.6385C131.683 31.7809 131.436 31.9524 131.134 32.1529C130.84 32.3527 130.56 32.5412 130.292 32.7185C130.025 32.8958 129.834 33.0218 129.719 33.0966L127.166 34.7474L129.662 36.8375Z" fill="white"/>
<path d="M134.082 48.9848L144.368 41.8994L145.87 44.0805L137.385 49.9252L140.259 54.0974L138.458 55.3381L134.082 48.9848Z" fill="white"/>
<path d="M141.782 61.9924L153.5 57.6693L154.417 60.1541L144.751 63.7202L146.504 68.4733L144.452 69.2303L141.782 61.9924Z" fill="white"/>
<path d="M146.786 83.6813L146.033 76.5273L158.454 75.2195L159.208 82.3735L157.05 82.6007L156.574 78.0806L153.846 78.3677L154.289 82.5735L152.131 82.8007L151.688 78.595L148.485 78.9322L148.961 83.4523L146.786 83.6813Z" fill="white"/>
<path d="M145.891 96.3168L146.279 93.6969L156.454 95.2031L156.951 91.8479L159.131 92.1707L157.75 101.501L155.57 101.178L156.066 97.823L145.891 96.3168Z" fill="white"/>
<path d="M141.401 111.015L142.44 108.578L151.903 112.611L153.232 109.49L155.26 110.354L151.562 119.031L149.535 118.167L150.864 115.047L141.401 111.015Z" fill="white"/>
<path d="M131.936 126.01L136.302 120.292L146.229 127.872L141.864 133.589L140.139 132.272L142.897 128.66L140.718 126.996L138.151 130.357L136.427 129.04L138.993 125.679L136.433 123.724L133.675 127.337L131.936 126.01Z" fill="white"/>
<path d="M117.527 138.262L120.245 136.276L130.208 140.697L130.27 140.651C130.02 140.347 129.77 140.04 129.521 139.728C129.272 139.416 129.023 139.104 128.773 138.793C128.528 138.485 128.28 138.176 128.031 137.864L124.562 133.119L126.473 131.722L133.844 141.806L131.148 143.777L121.247 139.427L121.199 139.462C121.436 139.768 121.675 140.07 121.914 140.368C122.153 140.666 122.392 140.964 122.631 141.262C122.865 141.563 123.1 141.865 123.334 142.166L126.823 146.938L124.899 148.345L117.527 138.262Z" fill="white"/>
<path d="M31.7971 135.875L26.2964 129.094L27.7228 127.937L32.1596 128.375C33.0622 128.457 33.8017 128.51 34.3783 128.533C34.9629 128.558 35.4483 128.523 35.8346 128.43C36.2245 128.341 36.5787 128.167 36.8972 127.909C37.282 127.597 37.4816 127.255 37.496 126.884C37.5183 126.514 37.3842 126.15 37.0936 125.792C36.7886 125.416 36.4063 125.121 35.9467 124.907C35.4872 124.693 34.9421 124.523 34.3114 124.396L34.7275 122.21C35.1924 122.295 35.6566 122.407 36.1201 122.544C36.5872 122.686 37.0517 122.91 37.5137 123.218C37.9837 123.526 38.4537 123.969 38.9237 124.549C39.4405 125.186 39.7686 125.825 39.9082 126.468C40.0513 127.114 40.0244 127.723 39.8272 128.293C39.6345 128.86 39.2882 129.347 38.7884 129.752C38.2532 130.186 37.6783 130.477 37.0638 130.623C36.4492 130.77 35.7601 130.815 34.9966 130.76C34.2366 130.709 33.3619 130.612 32.3727 130.468L30.1865 130.174L30.0936 130.249L33.5221 134.475L31.7971 135.875Z" fill="white"/>
<path d="M49.5726 142.793C48.9716 143.603 48.371 144.277 47.771 144.818C47.1755 145.362 46.5736 145.752 45.9653 145.988C45.3615 146.228 44.749 146.298 44.1277 146.199C43.5064 146.099 42.8757 145.812 42.2355 145.336C41.4308 144.739 40.9212 144.044 40.7067 143.254C40.4956 142.458 40.5519 141.585 40.8755 140.633C41.2025 139.677 41.765 138.662 42.563 137.587C43.3678 136.504 44.1675 135.661 44.962 135.059C45.7646 134.456 46.5747 134.139 47.3924 134.108C48.2102 134.077 49.0466 134.379 49.9017 135.014C50.7018 135.608 51.2075 136.303 51.4185 137.098C51.6376 137.892 51.5859 138.769 51.2635 139.728C50.9445 140.683 50.3809 141.705 49.5726 142.793ZM44.6686 139.151C44.1015 139.915 43.6689 140.583 43.3709 141.156C43.0809 141.729 42.9413 142.217 42.9524 142.623C42.9634 143.028 43.1472 143.363 43.5039 143.628C43.856 143.89 44.226 143.97 44.6139 143.867C45.0099 143.764 45.4398 143.491 45.9036 143.048C46.3708 142.6 46.8896 141.993 47.4601 141.224C48.0273 140.461 48.4575 139.791 48.751 139.214C49.0444 138.637 49.1834 138.145 49.1678 137.736C49.1602 137.326 48.9803 136.99 48.6282 136.728C48.2716 136.464 47.8959 136.387 47.5011 136.498C47.1097 136.605 46.6805 136.882 46.2132 137.329C45.7506 137.78 45.2357 138.388 44.6686 139.151Z" fill="white"/>
<path d="M62.5361 155.957L54.4491 152.665L55.1416 150.963L59.2407 149.21C60.0711 148.847 60.7446 148.537 61.2612 148.28C61.7853 148.02 62.1941 147.756 62.4876 147.488C62.7865 147.222 63.0132 146.899 63.1678 146.519C63.3546 146.06 63.365 145.665 63.1988 145.333C63.0401 144.998 62.7471 144.743 62.3198 144.569C61.8714 144.387 61.3943 144.312 60.8885 144.346C60.3828 144.38 59.8231 144.494 59.2095 144.687L58.5212 142.571C58.9695 142.421 59.4298 142.295 59.9021 142.192C60.3798 142.091 60.895 142.064 61.4479 142.111C62.0082 142.155 62.6339 142.317 63.3249 142.598C64.0845 142.908 64.6802 143.31 65.1119 143.806C65.5489 144.303 65.8184 144.849 65.9206 145.445C66.0248 146.034 65.9557 146.627 65.713 147.223C65.4532 147.862 65.0893 148.393 64.6213 148.817C64.1534 149.242 63.5715 149.614 62.8757 149.933C62.1852 150.255 61.372 150.591 60.4359 150.942L58.3781 151.737L58.3331 151.847L63.3736 153.899L62.5361 155.957Z" fill="white"/>
<path d="M72.6728 153.208C72.7682 152.496 72.9133 151.8 73.108 151.12C73.3092 150.434 73.5808 149.801 73.9231 149.22C74.266 148.634 74.7036 148.136 75.2357 147.724C75.7686 147.307 76.4145 147.012 77.1734 146.838C77.9331 146.658 78.8266 146.637 79.854 146.775C80.0968 146.807 80.3775 146.857 80.6962 146.922C81.0214 146.983 81.2882 147.051 81.4966 147.125L81.2161 149.216C80.9971 149.135 80.7597 149.063 80.5038 149C80.2543 148.932 80.0025 148.881 79.7485 148.847C78.7211 148.709 77.9032 148.766 77.2948 149.018C76.692 149.27 76.2359 149.671 75.9265 150.222C75.6234 150.767 75.4007 151.421 75.2582 152.184L75.3682 152.199C75.5634 151.943 75.7939 151.724 76.0598 151.541C76.3313 151.359 76.6475 151.229 77.0086 151.151C77.3703 151.068 77.7826 151.057 78.2455 151.119C78.9681 151.216 79.5739 151.455 80.0629 151.837C80.5526 152.213 80.9024 152.711 81.1123 153.331C81.3222 153.951 81.3711 154.679 81.2591 155.514C81.1394 156.406 80.8643 157.151 80.4336 157.748C80.0029 158.346 79.4484 158.774 78.77 159.034C78.0979 159.288 77.3301 159.358 76.4664 159.242C75.8341 159.157 75.2586 158.971 74.7398 158.683C74.2218 158.389 73.7866 157.992 73.4344 157.49C73.0821 156.989 72.8357 156.384 72.6951 155.676C72.5553 154.962 72.5478 154.139 72.6728 153.208ZM76.6961 157.143C77.2098 157.212 77.651 157.093 78.0197 156.787C78.3885 156.48 78.6228 155.954 78.7227 155.209C78.8038 154.605 78.7262 154.111 78.4902 153.729C78.2605 153.342 77.8634 153.111 77.2989 153.035C76.9151 152.984 76.5646 153.026 76.2476 153.161C75.937 153.292 75.6849 153.479 75.4912 153.723C75.2983 153.962 75.1833 154.219 75.1462 154.496C75.1076 154.784 75.1089 155.074 75.1501 155.367C75.1912 155.66 75.2753 155.933 75.4023 156.185C75.5294 156.438 75.6991 156.651 75.9116 156.823C76.1298 156.996 76.3913 157.103 76.6961 157.143Z" fill="white"/>
<path d="M86.18 170.86C132.947 170.86 170.86 132.947 170.86 86.18C170.86 39.4125 132.947 1.5 86.18 1.5C39.4125 1.5 1.5 39.4125 1.5 86.18C1.5 132.947 39.4125 170.86 86.18 170.86Z" stroke="white" stroke-width="3" stroke-miterlimit="10"/>
<path d="M23.0096 109.519C24.1805 109.519 25.1296 108.57 25.1296 107.399C25.1296 106.228 24.1805 105.279 23.0096 105.279C21.8388 105.279 20.8896 106.228 20.8896 107.399C20.8896 108.57 21.8388 109.519 23.0096 109.519Z" fill="white" stroke="white" stroke-width="2" stroke-miterlimit="10"/>
<path d="M104.29 152.709C105.467 152.709 106.42 151.756 106.42 150.579C106.42 149.403 105.467 148.449 104.29 148.449C103.114 148.449 102.16 149.403 102.16 150.579C102.16 151.756 103.114 152.709 104.29 152.709Z" fill="white" stroke="white" stroke-width="2" stroke-miterlimit="10"/>
</svg>
