<svg width="189" height="189" viewBox="0 0 189 189" fill="none" xmlns="http://www.w3.org/2000/svg">
<circle cx="94.5" cy="94.5" r="94.5" fill="#173945"/>
<path d="M21.914 86.1956L34.2322 90.918L34.1213 93.8036L21.4774 97.5585L21.5801 94.8864L29.0975 92.824C29.2243 92.789 29.463 92.7326 29.8137 92.6549C30.1586 92.5769 30.5264 92.4999 30.9169 92.4237C31.3019 92.3416 31.6203 92.2882 31.8721 92.2637C31.623 92.2199 31.3094 92.1481 30.9313 92.048C30.5535 91.9423 30.1955 91.8402 29.8573 91.7417C29.5136 91.6373 29.2771 91.5627 29.1477 91.5178L21.8113 88.8677L21.914 86.1956Z" fill="white"/>
<path d="M37.9971 73.0638L35.8555 79.9311L23.9314 76.2126L26.073 69.3453L28.1446 69.9913L26.7915 74.3303L29.4096 75.1468L30.6686 71.1095L32.7402 71.7556L31.4812 75.7928L34.556 76.7517L35.9091 72.4127L37.9971 73.0638Z" fill="white"/>
<path d="M32.6643 56.1056C33.2703 55.1477 33.8852 54.4314 34.5091 53.9567C35.136 53.4772 35.7788 53.2335 36.4375 53.2256C37.0962 53.2178 37.7818 53.4392 38.4941 53.8898C38.9755 54.1944 39.3388 54.5523 39.584 54.9635C39.8293 55.3748 39.9827 55.8089 40.0442 56.2656C40.1057 56.7224 40.1062 57.1743 40.0458 57.6213L46.6089 57.4264L45.0376 59.91L39.3932 59.8673L38.6395 61.0585L42.6898 63.621L41.2738 65.8592L30.7185 59.1812L32.6643 56.1056ZM34.3977 57.4246L33.9683 58.1032L36.8201 59.9075L37.2769 59.1855C37.7458 58.4443 37.9581 57.8372 37.9136 57.3642C37.8673 56.8834 37.6035 56.4907 37.1222 56.1862C36.6216 55.8695 36.1558 55.8174 35.7248 56.03C35.2968 56.2377 34.8544 56.7026 34.3977 57.4246Z" fill="white"/>
<path d="M54.8043 40.6692C55.7282 41.7301 56.2965 42.7948 56.5094 43.8631C56.7228 44.9234 56.6022 45.9687 56.1475 46.9991C55.6891 48.0251 54.9187 49.0094 53.8363 49.952L51.169 52.2748L42.9663 42.8553L45.9236 40.28C46.9115 39.4197 47.9218 38.8496 48.9544 38.5697C49.9832 38.2855 50.9966 38.3131 51.9945 38.6525C52.9887 38.9876 53.9253 39.6598 54.8043 40.6692ZM52.7746 42.5273C52.1686 41.8315 51.5681 41.35 50.9729 41.0828C50.3783 40.8076 49.7877 40.7366 49.2013 40.8697C48.6191 40.999 48.0359 41.3181 47.4518 41.8267L46.3887 42.7525L51.73 48.8861L52.5869 48.1399C53.5619 47.2908 54.0593 46.4007 54.0792 45.4695C54.1034 44.5346 53.6685 43.5539 52.7746 42.5273Z" fill="white"/>
<path d="M72.2559 38.3158L65.7502 41.3855L60.4202 30.0894L66.9259 27.0197L67.8519 28.9822L63.7414 30.9217L64.9117 33.4019L68.7363 31.5973L69.6623 33.5598L65.8377 35.3645L67.2121 38.2773L71.3226 36.3378L72.2559 38.3158Z" fill="white"/>
<path d="M90.645 34.0262L87.3204 34.5534L80.4741 26.0719L80.3982 26.084C80.4822 26.4686 80.5639 26.8564 80.6432 27.2475C80.7225 27.6386 80.8019 28.0297 80.8812 28.4208C80.9596 28.8063 81.0385 29.1945 81.1178 29.5856L82.0383 35.391L79.701 35.7616L77.7449 23.4253L81.0441 22.9021L87.8673 31.2921L87.9264 31.2827C87.8544 30.902 87.7802 30.5245 87.7035 30.1503C87.6269 29.7761 87.5503 29.4019 87.4736 29.0276C87.4026 28.6525 87.3316 28.2774 87.2606 27.9023L86.3347 22.0632L88.6889 21.6899L90.645 34.0262Z" fill="white"/>
<path d="M106.88 31.7003C106.786 32.4347 106.527 33.0503 106.101 33.547C105.676 34.0438 105.102 34.3953 104.381 34.6015C103.666 34.8084 102.822 34.8496 101.85 34.7251C101.421 34.6701 101.004 34.588 100.599 34.4787C100.199 34.3701 99.8169 34.2378 99.4522 34.082C99.0938 33.9213 98.7556 33.7373 98.4376 33.53L98.7502 31.0895C99.3045 31.4246 99.8846 31.7372 100.491 32.0273C101.097 32.3174 101.71 32.5022 102.332 32.5818C102.761 32.6368 103.113 32.6245 103.387 32.5448C103.667 32.4658 103.879 32.3351 104.023 32.1525C104.167 31.97 104.255 31.7516 104.288 31.4974C104.328 31.1867 104.257 30.9078 104.076 30.6607C103.896 30.4135 103.634 30.1704 103.291 29.9313C102.954 29.6929 102.571 29.4342 102.142 29.1553C101.871 28.9828 101.579 28.7788 101.264 28.5433C100.951 28.3021 100.659 28.0208 100.39 27.6992C100.122 27.3777 99.9139 27.0037 99.7675 26.5773C99.6276 26.1459 99.5938 25.6477 99.6661 25.0828C99.7609 24.3427 100.011 23.7317 100.418 23.2497C100.824 22.7678 101.358 22.4285 102.021 22.232C102.69 22.0306 103.454 21.9849 104.312 22.0949C104.956 22.1774 105.56 22.3322 106.122 22.5593C106.691 22.7814 107.276 23.0746 107.878 23.4389L106.769 25.3726C106.228 25.0679 105.74 24.8244 105.304 24.6422C104.869 24.4544 104.417 24.3305 103.948 24.2704C103.62 24.2284 103.333 24.2463 103.088 24.3239C102.843 24.3959 102.649 24.5204 102.506 24.6973C102.364 24.8685 102.276 25.0784 102.245 25.327C102.207 25.6208 102.26 25.8802 102.403 26.1053C102.553 26.3254 102.788 26.5508 103.109 26.7814C103.436 27.0127 103.843 27.2859 104.331 27.6011C104.925 27.9815 105.424 28.3642 105.829 28.749C106.239 29.129 106.538 29.5548 106.724 30.0266C106.912 30.4927 106.964 31.0506 106.88 31.7003Z" fill="white"/>
<path d="M120.097 26.0689L123.653 27.6376C125.175 28.3087 126.232 29.0303 126.826 29.8024C127.419 30.5745 127.479 31.4973 127.005 32.5708C126.814 33.0033 126.572 33.3631 126.277 33.6502C125.987 33.9396 125.663 34.1389 125.304 34.2481C124.944 34.3572 124.562 34.3629 124.157 34.2652L124.122 34.3434C124.468 34.5893 124.753 34.8765 124.975 35.2049C125.2 35.5281 125.323 35.9124 125.344 36.3576C125.373 36.7999 125.256 37.3207 124.991 37.92C124.686 38.6131 124.254 39.1325 123.697 39.4782C123.14 39.8238 122.488 39.9905 121.74 39.9782C121 39.9629 120.197 39.7645 119.332 39.383L115.056 37.4971L120.097 26.0689ZM120.524 31.6636L121.931 32.2842C122.634 32.5945 123.17 32.6999 123.537 32.6006C123.907 32.496 124.187 32.2275 124.378 31.7949C124.571 31.3572 124.547 30.9733 124.307 30.6432C124.074 30.3101 123.611 29.9908 122.918 29.6851L121.644 29.1231L120.524 31.6636ZM119.675 33.5866L118.362 36.5648L119.941 37.2612C120.67 37.583 121.241 37.6664 121.651 37.5114C122.062 37.3564 122.372 37.0418 122.581 36.5676C122.705 36.2861 122.752 36.011 122.721 35.7422C122.69 35.4734 122.553 35.2135 122.309 34.9627C122.07 34.7141 121.692 34.476 121.176 34.2485L119.675 33.5866Z" fill="white"/>
<path d="M136.005 50.3051L137.22 47.4444L133.729 44.5204L131.126 46.2181L128.938 44.3858L140.371 37.602L142.853 39.6811L138.193 52.1373L136.005 50.3051ZM138.162 45.3356L139.333 42.5273C139.413 42.3422 139.514 42.1029 139.633 41.8094C139.761 41.5151 139.888 41.2168 140.015 40.9144C140.15 40.6114 140.271 40.3521 140.377 40.1365C140.183 40.279 139.936 40.4504 139.634 40.6509C139.34 40.8508 139.06 41.0393 138.792 41.2165C138.525 41.3938 138.334 41.5199 138.219 41.5947L135.666 43.2455L138.162 45.3356Z" fill="white"/>
<path d="M142.582 57.4848L152.868 50.3994L154.37 52.5805L145.885 58.4252L148.759 62.5974L146.958 63.8381L142.582 57.4848Z" fill="white"/>
<path d="M150.282 70.4924L162 66.1693L162.917 68.6541L153.251 72.2202L155.004 76.9733L152.952 77.7303L150.282 70.4924Z" fill="white"/>
<path d="M155.286 92.1813L154.533 85.0273L166.954 83.7195L167.708 90.8735L165.55 91.1007L165.074 86.5806L162.346 86.8677L162.789 91.0735L160.631 91.3007L160.188 87.095L156.985 87.4322L157.461 91.9523L155.286 92.1813Z" fill="white"/>
<path d="M154.391 104.817L154.779 102.197L164.954 103.703L165.451 100.348L167.631 100.671L166.25 110.001L164.07 109.678L164.566 106.323L154.391 104.817Z" fill="white"/>
<path d="M149.901 119.513L150.94 117.076L160.403 121.109L161.732 117.988L163.76 118.852L160.062 127.529L158.035 126.665L159.364 123.545L149.901 119.513Z" fill="white"/>
<path d="M140.436 134.51L144.802 128.792L154.729 136.372L150.364 142.089L148.639 140.772L151.397 137.16L149.218 135.496L146.651 138.857L144.927 137.54L147.493 134.179L144.933 132.224L142.175 135.837L140.436 134.51Z" fill="white"/>
<path d="M126.027 146.762L128.745 144.776L138.708 149.197L138.77 149.151C138.52 148.847 138.27 148.54 138.021 148.228C137.772 147.916 137.523 147.604 137.273 147.293C137.028 146.985 136.78 146.676 136.531 146.364L133.062 141.619L134.973 140.222L142.344 150.306L139.648 152.277L129.747 147.927L129.699 147.962C129.936 148.268 130.175 148.57 130.414 148.868C130.653 149.166 130.892 149.464 131.131 149.762C131.365 150.063 131.6 150.365 131.834 150.666L135.323 155.438L133.399 156.845L126.027 146.762Z" fill="white"/>
<path d="M40.2961 144.375L34.7954 137.594L36.2219 136.437L40.6587 136.875C41.5612 136.957 42.3008 137.01 42.8773 137.033C43.4619 137.058 43.9473 137.023 44.3337 136.93C44.7235 136.841 45.0777 136.667 45.3962 136.409C45.781 136.097 45.9806 135.755 45.995 135.384C46.0174 135.014 45.8832 134.65 45.5926 134.292C45.2876 133.916 44.9053 133.621 44.4458 133.407C43.9862 133.193 43.4411 133.023 42.8105 132.896L43.2265 130.71C43.6914 130.795 44.1556 130.907 44.6191 131.044C45.0862 131.186 45.5507 131.41 46.0127 131.718C46.4827 132.026 46.9527 132.469 47.4228 133.049C47.9395 133.686 48.2676 134.325 48.4072 134.968C48.5504 135.614 48.5234 136.223 48.3262 136.793C48.1335 137.36 47.7872 137.847 47.2874 138.252C46.7522 138.686 46.1773 138.977 45.5628 139.123C44.9482 139.27 44.2592 139.315 43.4956 139.26C42.7356 139.209 41.861 139.112 40.8717 138.968L38.6855 138.674L38.5926 138.749L42.0212 142.975L40.2961 144.375Z" fill="white"/>
<path d="M58.0717 151.293C57.4706 152.103 56.87 152.777 56.27 153.318C55.6745 153.862 55.0726 154.252 54.4643 154.488C53.8605 154.728 53.248 154.798 52.6267 154.699C52.0054 154.599 51.3747 154.312 50.7346 153.836C49.9298 153.239 49.4202 152.544 49.2057 151.754C48.9946 150.958 49.0509 150.085 49.3745 149.133C49.7015 148.177 50.264 147.162 51.062 146.087C51.8668 145.004 52.6665 144.161 53.4611 143.559C54.2636 142.956 55.0737 142.639 55.8915 142.608C56.7092 142.577 57.5456 142.879 58.4007 143.514C59.2009 144.108 59.7065 144.803 59.9176 145.598C60.1366 146.392 60.0849 147.269 59.7625 148.228C59.4435 149.183 58.8799 150.205 58.0717 151.293ZM53.1676 147.651C52.6005 148.415 52.168 149.083 51.8699 149.656C51.5799 150.229 51.4404 150.717 51.4514 151.123C51.4624 151.528 51.6462 151.863 52.0029 152.128C52.355 152.39 52.725 152.47 53.113 152.367C53.5089 152.264 53.9388 151.991 54.4026 151.548C54.8698 151.1 55.3887 150.493 55.9592 149.724C56.5263 148.961 56.9566 148.291 57.25 147.714C57.5435 147.137 57.6824 146.645 57.6668 146.236C57.6592 145.826 57.4793 145.49 57.1272 145.228C56.7706 144.964 56.3949 144.887 56.0001 144.998C55.6088 145.105 55.1795 145.382 54.7123 145.829C54.2496 146.28 53.7348 146.888 53.1676 147.651Z" fill="white"/>
<path d="M71.0351 164.457L62.9481 161.165L63.6407 159.463L67.7397 157.71C68.5701 157.347 69.2436 157.037 69.7602 156.78C70.2843 156.52 70.6931 156.256 70.9867 155.988C71.2855 155.722 71.5122 155.399 71.6668 155.019C71.8536 154.56 71.864 154.165 71.6978 153.833C71.5391 153.498 71.2461 153.243 70.8188 153.069C70.3704 152.887 69.8933 152.812 69.3875 152.846C68.8818 152.88 68.3221 152.994 67.7086 153.187L67.0202 151.071C67.4685 150.921 67.9288 150.795 68.4012 150.692C68.8788 150.591 69.394 150.564 69.9469 150.611C70.5072 150.655 71.1329 150.817 71.8239 151.098C72.5836 151.408 73.1792 151.81 73.6109 152.306C74.0479 152.803 74.3174 153.349 74.4196 153.945C74.5239 154.534 74.4547 155.127 74.212 155.723C73.9522 156.362 73.5883 156.893 73.1203 157.317C72.6524 157.742 72.0705 158.114 71.3748 158.433C70.6843 158.755 69.871 159.091 68.9349 159.442L66.8772 160.237L66.8321 160.347L71.8726 162.399L71.0351 164.457Z" fill="white"/>
<path d="M81.1728 161.708C81.2682 160.996 81.4133 160.3 81.608 159.62C81.8092 158.934 82.0808 158.301 82.4231 157.72C82.766 157.134 83.2036 156.636 83.7357 156.224C84.2686 155.807 84.9145 155.512 85.6734 155.338C86.4331 155.158 87.3266 155.137 88.354 155.275C88.5968 155.307 88.8775 155.357 89.1962 155.422C89.5214 155.483 89.7882 155.551 89.9966 155.625L89.7161 157.716C89.4971 157.635 89.2597 157.563 89.0038 157.5C88.7543 157.432 88.5025 157.381 88.2485 157.347C87.2211 157.209 86.4032 157.266 85.7948 157.518C85.192 157.77 84.7359 158.171 84.4265 158.722C84.1234 159.267 83.9007 159.921 83.7582 160.684L83.8682 160.699C84.0634 160.443 84.2939 160.224 84.5598 160.041C84.8313 159.859 85.1475 159.729 85.5086 159.651C85.8703 159.568 86.2826 159.557 86.7455 159.619C87.4681 159.716 88.0739 159.955 88.5629 160.337C89.0526 160.713 89.4024 161.211 89.6123 161.831C89.8222 162.451 89.8711 163.179 89.7591 164.014C89.6394 164.906 89.3643 165.651 88.9336 166.248C88.5029 166.846 87.9484 167.274 87.27 167.534C86.5979 167.788 85.8301 167.858 84.9664 167.742C84.3341 167.657 83.7586 167.471 83.2398 167.183C82.7218 166.889 82.2866 166.492 81.9344 165.99C81.5821 165.489 81.3357 164.884 81.1951 164.176C81.0553 163.462 81.0478 162.639 81.1728 161.708ZM85.1961 165.643C85.7098 165.712 86.151 165.593 86.5197 165.287C86.8885 164.98 87.1228 164.454 87.2227 163.709C87.3038 163.105 87.2262 162.611 86.9902 162.229C86.7605 161.842 86.3634 161.611 85.7989 161.535C85.4151 161.484 85.0646 161.526 84.7476 161.661C84.437 161.792 84.1849 161.979 83.9912 162.223C83.7983 162.462 83.6833 162.719 83.6462 162.996C83.6076 163.284 83.6089 163.574 83.6501 163.867C83.6912 164.16 83.7753 164.433 83.9023 164.685C84.0294 164.938 84.1991 165.151 84.4116 165.323C84.6298 165.496 84.8913 165.603 85.1961 165.643Z" fill="white"/>
<path d="M94.68 179.36C141.447 179.36 179.36 141.447 179.36 94.68C179.36 47.9125 141.447 10 94.68 10C47.9125 10 10 47.9125 10 94.68C10 141.447 47.9125 179.36 94.68 179.36Z" stroke="white" stroke-width="3" stroke-miterlimit="10"/>
<path d="M31.5096 118.019C32.6805 118.019 33.6296 117.07 33.6296 115.899C33.6296 114.728 32.6805 113.779 31.5096 113.779C30.3388 113.779 29.3896 114.728 29.3896 115.899C29.3896 117.07 30.3388 118.019 31.5096 118.019Z" fill="white" stroke="white" stroke-width="2" stroke-miterlimit="10"/>
<path d="M112.79 161.209C113.967 161.209 114.92 160.256 114.92 159.079C114.92 157.903 113.967 156.949 112.79 156.949C111.614 156.949 110.66 157.903 110.66 159.079C110.66 160.256 111.614 161.209 112.79 161.209Z" fill="white" stroke="white" stroke-width="2" stroke-miterlimit="10"/>
</svg>
