<svg width="54" height="30" viewBox="0 0 54 30" fill="none" xmlns="http://www.w3.org/2000/svg">
<path d="M40.9107 6.5258L42.8032 13.0446C43.2004 13.3904 50.6164 12.6614 52.065 13.2455C53.5137 13.8297 53.6702 16.4325 52.8314 17.568C52.759 17.6685 52.0604 18.2082 52.0066 18.2082H44.4131L47.4388 28.1663C47.5883 29.3532 47.0252 29.8019 45.9458 29.907C44.7892 30.0191 42.6747 30.1967 42.1093 29.0425L38.5812 17.3834L14.8893 17.3087L11.1065 29.1804C10.3682 30.2972 5.39378 30.5332 5.90781 28.2084L8.89851 18.2106H1.53858C0.0852871 18.2106 -0.905382 14.1147 1.24886 13.2479C2.89374 12.5843 9.51767 13.5329 10.3144 12.9675L12.1696 6.52814H6.91249C6.58772 6.52814 5.61808 5.52578 5.49892 5.13793C5.16013 4.0281 5.03396 0.500011 6.55034 0.0911263L46.1537 0C48.808 0.149535 48.2986 6.52814 46.4014 6.52814H40.9107V6.5258ZM7.01997 1.40189V4.89026H46.2846V1.40189H7.01997ZM15.9103 6.5258L13.8285 6.54683L7.59007 28.0028C7.51063 28.8275 8.87047 27.9303 9.49898 28.4233L15.9103 6.5258ZM15.5598 15.6381C22.9431 15.4675 30.3685 15.6381 37.7564 15.6381C37.8616 15.6381 38.156 16.2502 38.1092 15.5189L35.1536 6.55617L17.7514 6.66366L15.2047 15.7526C15.2467 16.082 15.5014 15.6381 15.5575 15.6381H15.5598ZM39.2424 6.55851C38.7845 6.61225 37.1022 6.19402 37.1816 6.86225L43.5042 28.2317L45.815 28.4888L39.2424 6.55851ZM9.83543 14.7035H1.65774V16.5727H9.36814L9.83543 14.7035ZM51.6585 14.7035H43.4808C43.4668 15.3577 43.5813 16.0914 44.0649 16.5727H51.6585V14.7035Z" fill="#173945"/>
</svg>
