<svg width="22" height="30" viewBox="0 0 22 30" fill="none" xmlns="http://www.w3.org/2000/svg">
<path d="M7.62517 0.949644C7.7196 0.388068 8.2878 0.426169 8.71851 0.68625L8.94546 1.12027C8.62243 3.97453 9.74061 8.43567 8.09398 10.8625C7.72291 11.4109 6.56497 12.2126 6.46889 12.7162L7.27895 27.6071C6.50202 30.854 2.45503 30.7562 1.8421 27.4415L2.62069 12.5638C1.21592 11.449 0.164 10.2861 0 8.41082L0.324687 0.608391C0.54004 0.432795 1.33022 0.537158 1.33022 0.785643V9.06847C1.33022 9.25235 2.13863 10.5263 2.32416 10.725C2.72836 11.1524 3.69911 11.5003 3.8101 12.0536L3.00004 26.9445C3.06465 29.4095 6.13095 29.2322 6.13426 26.9627C6.13426 26.6844 5.97027 26.4044 5.96695 26.1311C5.92057 21.4347 5.38715 16.7433 5.13701 12.0586C5.22481 11.5533 6.34134 11.0845 6.79027 10.5577C7.16631 10.1171 7.38994 9.59195 7.62186 9.07013C7.91176 6.63332 7.23257 3.27215 7.62186 0.952957L7.62517 0.949644Z" fill="#173945"/>
<mask id="path-2-inside-1_613_36081" fill="white">
<path d="M17.5283 17.4646C12.3582 14.728 14.9159 5.29053 17.9011 1.78026C18.8403 0.675335 20.5648 -0.6582 21.9563 0.367214L22.0027 28.4112C20.9674 30.795 17.5167 30.424 17.2335 27.7834C16.9933 25.542 17.5035 22.4923 17.5714 20.1698C17.5979 19.2736 17.5747 18.3575 17.5283 17.4646ZM20.8779 1.1955C18.5157 2.07348 17.1705 5.05695 16.4897 7.32645C15.7012 9.95211 15.0186 13.5783 17.2285 15.6954C17.7304 16.1758 18.784 16.5121 18.8851 17.019C18.7078 19.7341 18.6465 22.4277 18.5654 25.1395C18.5389 26.0092 18.1843 26.9435 18.4676 27.8745C18.8602 29.1633 20.8779 28.8071 20.8779 27.949V1.1955Z"/>
</mask>
<path d="M17.5283 17.4646C12.3582 14.728 14.9159 5.29053 17.9011 1.78026C18.8403 0.675335 20.5648 -0.6582 21.9563 0.367214L22.0027 28.4112C20.9674 30.795 17.5167 30.424 17.2335 27.7834C16.9933 25.542 17.5035 22.4923 17.5714 20.1698C17.5979 19.2736 17.5747 18.3575 17.5283 17.4646ZM20.8779 1.1955C18.5157 2.07348 17.1705 5.05695 16.4897 7.32645C15.7012 9.95211 15.0186 13.5783 17.2285 15.6954C17.7304 16.1758 18.784 16.5121 18.8851 17.019C18.7078 19.7341 18.6465 22.4277 18.5654 25.1395C18.5389 26.0092 18.1843 26.9435 18.4676 27.8745C18.8602 29.1633 20.8779 28.8071 20.8779 27.949V1.1955Z" fill="#173945"/>
<path d="M17.5283 17.4646L19.5257 17.3609L19.4668 16.2278L18.464 15.697L17.5283 17.4646ZM17.9011 1.78026L19.4246 3.07592L19.4249 3.07563L17.9011 1.78026ZM21.9563 0.367214L23.9563 0.363906L23.9547 -0.644582L23.1428 -1.24285L21.9563 0.367214ZM22.0027 28.4112L23.8372 29.208L24.0034 28.8252L24.0027 28.4079L22.0027 28.4112ZM17.2335 27.7834L15.2449 27.9965L15.2449 27.9967L17.2335 27.7834ZM17.5714 20.1698L15.5723 20.1107L15.5723 20.1113L17.5714 20.1698ZM20.8779 1.1955H22.8779V-1.68151L20.1812 -0.679207L20.8779 1.1955ZM16.4897 7.32645L18.4052 7.9017L18.4053 7.90114L16.4897 7.32645ZM17.2285 15.6954L15.8449 17.1396L15.8456 17.1403L17.2285 15.6954ZM18.8851 17.019L20.8808 17.1493L20.898 16.8864L20.8465 16.628L18.8851 17.019ZM18.5654 25.1395L20.5644 25.2004L20.5645 25.1993L18.5654 25.1395ZM18.4676 27.8745L16.5542 28.4567L16.5544 28.4573L18.4676 27.8745ZM17.5283 17.4646L18.464 15.697C17.0156 14.9303 16.3044 13.0471 16.643 10.1443C16.9715 7.32859 18.2292 4.48167 19.4246 3.07592L17.9011 1.78026L16.3775 0.484612C14.5878 2.58913 13.0741 6.21607 12.6699 9.68083C12.276 13.0584 12.8709 17.2623 16.5927 19.2323L17.5283 17.4646ZM17.9011 1.78026L19.4249 3.07563C19.7939 2.64153 20.2449 2.25837 20.6175 2.08127C20.7903 1.99917 20.8658 2.00004 20.8575 2C20.8492 1.99996 20.8272 1.99822 20.8 1.98932C20.7722 1.98024 20.7615 1.97108 20.7699 1.97728L21.9563 0.367214L23.1428 -1.24285C21.6445 -2.34695 20.0158 -2.06144 18.9007 -1.53155C17.8284 -1.022 16.9475 -0.185936 16.3772 0.484901L17.9011 1.78026ZM21.9563 0.367214L19.9564 0.370522L20.0027 28.4145L22.0027 28.4112L24.0027 28.4079L23.9563 0.363906L21.9563 0.367214ZM22.0027 28.4112L20.1683 27.6145C20.0856 27.8049 19.9823 27.8908 19.9003 27.9357C19.8053 27.9877 19.69 28.0097 19.5773 27.996C19.4657 27.9825 19.3901 27.9388 19.3466 27.8965C19.3159 27.8668 19.2453 27.7867 19.2221 27.5701L17.2335 27.7834L15.2449 27.9967C15.4934 30.3132 17.2163 31.7386 19.0948 31.9668C20.9366 32.1907 22.9417 31.2698 23.8372 29.208L22.0027 28.4112ZM17.2335 27.7834L19.2221 27.5703C19.1238 26.6527 19.1749 25.4946 19.2806 24.1656C19.3799 22.9173 19.5347 21.4558 19.5706 20.2283L17.5714 20.1698L15.5723 20.1113C15.5402 21.2063 15.4059 22.431 15.2932 23.8485C15.1869 25.1853 15.103 26.6727 15.2449 27.9965L17.2335 27.7834ZM17.5714 20.1698L19.5705 20.2289C19.5992 19.2611 19.5738 18.2873 19.5257 17.3609L17.5283 17.4646L15.531 17.5684C15.5757 18.4277 15.5967 19.2861 15.5723 20.1107L17.5714 20.1698ZM20.8779 1.1955L20.1812 -0.679207C18.4237 -0.0259986 17.1964 1.3452 16.3604 2.67424C15.5131 4.02117 14.9435 5.52018 14.574 6.75175L16.4897 7.32645L18.4053 7.90114C18.7167 6.86322 19.1601 5.73574 19.7462 4.80407C20.3435 3.8545 20.9699 3.29497 21.5747 3.0702L20.8779 1.1955ZM16.4897 7.32645L14.5742 6.7512C14.1615 8.12553 13.7263 9.91379 13.7347 11.711C13.7432 13.5225 14.2089 15.5723 15.8449 17.1396L17.2285 15.6954L18.6121 14.2512C18.0382 13.7015 17.7403 12.8796 17.7347 11.6923C17.729 10.4907 18.0294 9.15303 18.4052 7.9017L16.4897 7.32645ZM17.2285 15.6954L15.8456 17.1403C16.1211 17.404 16.4198 17.6012 16.6237 17.7289C16.7325 17.797 16.84 17.8608 16.9282 17.913C17.0233 17.9692 17.0943 18.011 17.1625 18.0528C17.3136 18.1453 17.3333 18.1681 17.3057 18.1429C17.2936 18.1319 17.0196 17.8913 16.9237 17.41L18.8851 17.019L20.8465 16.628C20.7 15.8933 20.2564 15.4206 20.0027 15.1889C19.7334 14.943 19.4394 14.7567 19.2517 14.6417C18.947 14.4551 18.9603 14.4724 18.7461 14.3384C18.6081 14.252 18.5868 14.2271 18.6114 14.2505L17.2285 15.6954ZM18.8851 17.019L16.8893 16.8887C16.7091 19.6487 16.6468 22.3888 16.5663 25.0797L18.5654 25.1395L20.5645 25.1993C20.6463 22.4666 20.7065 19.8196 20.8808 17.1493L18.8851 17.019ZM18.5654 25.1395L16.5663 25.0786C16.5564 25.4037 16.5024 25.5327 16.4153 26.2394C16.3473 26.7914 16.2905 27.5899 16.5542 28.4567L18.4676 27.8745L20.381 27.2923C20.3615 27.2281 20.3403 27.094 20.3853 26.7287C20.4105 26.524 20.4371 26.3742 20.4784 26.0898C20.5138 25.8454 20.5543 25.5339 20.5644 25.2004L18.5654 25.1395ZM18.4676 27.8745L16.5544 28.4573C17.116 30.3009 18.839 30.7833 19.9469 30.7128C20.5202 30.6764 21.1466 30.5011 21.6876 30.1301C22.2285 29.7591 22.8779 29.0316 22.8779 27.949H20.8779H18.8779C18.8779 27.2956 19.2751 26.9343 19.4254 26.8312C19.5758 26.7281 19.6733 26.7221 19.6931 26.7209C19.7209 26.7191 19.8251 26.7163 19.9739 26.7982C20.1602 26.9007 20.3186 27.0876 20.3808 27.2917L18.4676 27.8745ZM20.8779 27.949H22.8779V1.1955H20.8779H18.8779V27.949H20.8779Z" fill="#173945" mask="url(#path-2-inside-1_613_36081)"/>
<path d="M2.65627 0.949623C2.66952 0.871764 2.83518 0.55039 2.93458 0.527198C4.61599 0.121339 3.84403 3.35993 3.80924 4.25613C3.7728 5.20865 4.29793 8.9293 2.65627 7.41023C2.88322 5.45548 2.34981 2.81492 2.65627 0.949623Z" fill="#173945"/>
<path d="M5.14062 0.783155C5.26652 0.37564 6.30022 0.498225 6.30022 0.783155V7.40942C6.30022 7.89148 5.14062 7.89148 5.14062 7.40942V0.783155Z" fill="#173945"/>
</svg>
