<svg width="51" height="111" viewBox="0 0 51 111" fill="none" xmlns="http://www.w3.org/2000/svg">
<g clip-path="url(#clip0_1255_815)">
<path d="M37.8193 41.4375C38.7544 41.4375 39.2658 41.7007 39.6016 42.0205C39.982 42.3829 40.3904 43.0654 40.6338 44.3057C41.1335 46.8531 40.7668 50.879 39.3242 56.2002L39.3213 56.2129L39.3174 56.2256L31.5947 85.9199C30.892 88.6078 30.5866 90.7661 30.8008 92.3789C30.9102 93.2026 31.1888 94.1475 31.8779 94.915C32.6408 95.7646 33.6469 96.1094 34.5977 96.1094H34.876L35.1484 96.0479C39.5698 95.0488 43.7258 93.1492 47.3623 90.4805L47.875 91.1758C41.5849 97.2265 35.1288 101.49 29.5381 104.278C23.6658 107.207 18.9537 108.406 16.4775 108.5H16.1768C14.9401 108.5 13.9939 108.305 13.2939 107.952C12.6487 107.627 12.0889 107.109 11.6699 106.175C10.7431 104.109 10.4835 99.9549 12.5195 92.0801L12.5254 92.0576L12.5303 92.0352L19.2803 63.7852C19.8481 61.6008 20.2712 59.75 20.3027 58.4014C20.318 57.7496 20.2651 56.7517 19.6885 55.8643C18.9616 54.7458 17.8145 54.3731 16.8496 54.373H16.54L16.2393 54.4492C11.8484 55.5534 7.64583 57.2843 3.75879 59.583L3.24512 58.7285C9.75785 53.4425 16.6257 49.2148 22.7217 46.2568C29.436 42.9989 34.8881 41.4376 37.8193 41.4375ZM39.3037 2.52051C40.4234 2.43487 41.5485 2.58802 42.6035 2.9707C43.6586 3.35343 44.6198 3.95609 45.4219 4.73828C46.2239 5.52044 46.8491 6.46422 47.2559 7.50586C47.6615 8.54465 47.8401 9.65765 47.7812 10.7705H47.7803C47.6361 13.8755 46.2981 16.8071 44.043 18.9561C41.7914 21.1016 38.7984 22.302 35.6826 22.3076L35.4053 22.3037L35.3994 22.6543L35.3809 22.3037H35.3672L35.3496 24.5186L35.1104 22.3184C33.9906 22.44 32.8578 22.3071 31.7969 21.9307C30.736 21.5543 29.7746 20.944 28.9844 20.1455C28.1941 19.3468 27.5952 18.3804 27.2324 17.3193C26.8696 16.2582 26.7515 15.1292 26.8877 14.0166L26.7393 13.998L26.8896 14.0088L26.8945 13.9619L25.4072 13.7959L26.9004 13.8525C27.016 10.7481 28.3572 7.81334 30.6338 5.68945C32.551 3.90092 35.001 2.81216 37.5889 2.56738L37.6299 2.64844L39.3037 2.52051Z" stroke="#173945" stroke-width="5"/>
</g>
<defs>
<clipPath id="clip0_1255_815">
<rect width="51" height="111" fill="white"/>
</clipPath>
</defs>
</svg>
