<svg width="18" height="20" viewBox="0 0 18 20" fill="none" xmlns="http://www.w3.org/2000/svg">
<path d="M14.4069 14.4069C13.4702 15.3435 11.5116 17.3021 10.1638 18.6499C9.38275 19.431 8.11768 19.4314 7.33663 18.6503C6.01234 17.326 4.09159 15.4053 3.09315 14.4069C-0.0310485 11.2827 -0.0310485 6.21734 3.09315 3.09315C6.21734 -0.0310485 11.2827 -0.0310485 14.4069 3.09315C17.531 6.21734 17.531 11.2827 14.4069 14.4069Z" stroke="white" stroke-opacity="0.75" stroke-width="1.5" stroke-linecap="round" stroke-linejoin="round"/>
<path d="M11.75 8.75C11.75 10.4069 10.4069 11.75 8.75 11.75C7.09315 11.75 5.75 10.4069 5.75 8.75C5.75 7.09315 7.09315 5.75 8.75 5.75C10.4069 5.75 11.75 7.09315 11.75 8.75Z" stroke="white" stroke-opacity="0.75" stroke-width="1.5" stroke-linecap="round" stroke-linejoin="round"/>
</svg>
