<svg width="14" height="20" viewBox="0 0 14 20" fill="none" xmlns="http://www.w3.org/2000/svg">
<path d="M1.25 14.75H12.25" stroke="white" stroke-opacity="0.75" stroke-width="1.5" stroke-linecap="round" stroke-linejoin="round"/>
<path d="M0.75 17.75V15.75C0.75 14.1587 1.38214 12.6326 2.50736 11.5074C3.63258 10.3821 5.1587 9.75 6.75 9.75C8.3413 9.75 9.86742 10.3821 10.9926 11.5074C12.1179 12.6326 12.75 14.1587 12.75 15.75V17.75C12.75 18.0152 12.6446 18.2696 12.4571 18.4571C12.2696 18.6446 12.0152 18.75 11.75 18.75H1.75C1.48478 18.75 1.23043 18.6446 1.04289 18.4571C0.855357 18.2696 0.75 18.0152 0.75 17.75Z" stroke="white" stroke-opacity="0.75" stroke-width="1.5" stroke-linecap="round" stroke-linejoin="round"/>
<path d="M0.75 1.75V3.75C0.75 5.3413 1.38214 6.86742 2.50736 7.99264C3.63258 9.11786 5.1587 9.75 6.75 9.75C8.3413 9.75 9.86742 9.11786 10.9926 7.99264C12.1179 6.86742 12.75 5.3413 12.75 3.75V1.75C12.75 1.48478 12.6446 1.23043 12.4571 1.04289C12.2696 0.855357 12.0152 0.75 11.75 0.75H1.75C1.48478 0.75 1.23043 0.855357 1.04289 1.04289C0.855357 1.23043 0.75 1.48478 0.75 1.75Z" stroke="white" stroke-opacity="0.75" stroke-width="1.5" stroke-linecap="round" stroke-linejoin="round"/>
</svg>
