<svg width="38" height="30" viewBox="0 0 38 30" fill="none" xmlns="http://www.w3.org/2000/svg">
<path d="M36.3271 14.2197C35.2833 17.9781 35.3516 22.5127 34.3958 26.2136C33.7832 28.5833 31.0632 29.2444 28.9935 29.7942C21.8055 29.3217 13.8017 30.4284 6.71066 29.8032C4.87276 29.6415 4.05532 28.4378 3.62415 26.7813C2.57854 22.7768 2.39709 18.1955 1.05145 14.2628C-0.366041 13.8029 -0.157635 12.8184 0.550214 11.7692C1.0281 11.0595 2.62346 9.06174 3.21633 8.5066C3.71398 8.04129 4.52782 7.97661 4.81707 7.59214C5.38479 6.83938 5.90759 3.71155 6.5328 2.4809C7.23346 1.10293 8.39584 0.310639 9.94628 0.145354C15.2228 0.513651 21.1066 -0.319958 26.3095 0.145354C27.5221 0.253148 28.6702 0.966388 29.3439 1.96169C30.1164 3.10071 31.0273 7.22385 31.9615 7.78797C32.3765 8.03769 33.3305 7.77001 33.9467 7.95865C34.6689 8.17962 36.9703 11.7476 37.1302 12.5004C37.3188 13.3933 37.1266 13.828 36.3271 14.2197ZM30.3428 7.8778L28.0845 2.50066C27.4629 1.65268 26.7784 1.47841 25.7687 1.40295C20.5748 1.01849 14.7629 1.60417 9.53487 1.5341C7.19394 2.14314 6.89391 5.95906 6.08905 7.8778L8.61503 7.80055C9.67141 5.31229 9.10369 2.9516 12.4597 2.66235C15.4168 2.40724 21.4012 2.3767 24.3332 2.66055C27.0101 2.91926 26.676 5.91774 27.2886 7.8796H30.3428V7.8778ZM26.031 7.8778C25.395 6.43695 25.8962 4.09242 23.9739 3.91636C20.2083 3.57142 15.8319 4.12656 12.0052 4.00259C10.5607 4.34574 10.4601 6.65074 10.0415 7.8778H26.031ZM1.41796 13.0879H35.6427L35.8349 12.7214C35.0983 11.8716 34.2108 9.32224 33.1167 9.14618L4.47572 9.22882C4.29965 9.30248 2.23539 11.7368 1.96052 12.1033C1.83835 12.2668 1.27424 12.9621 1.41796 13.0879ZM30.8817 14.3455H2.67556L4.91768 26.5657C5.2734 27.6886 5.62374 28.4306 6.88853 28.5474C13.3885 29.1438 20.7904 28.0767 27.3874 28.5474C28.0773 28.5833 28.6935 28.1862 28.8606 27.5053L30.8817 14.3455ZM34.8342 14.3455H32.1393C31.4441 18.4686 31.0219 22.6618 30.2889 26.7777C30.208 27.2359 30.199 27.7712 29.8056 28.091C30.3679 28.1557 31.904 27.4479 32.3837 27.076C32.7376 26.8011 32.9262 26.3915 33.0987 25.9944L34.836 14.3473L34.8342 14.3455Z" fill="#173945"/>
</svg>
