<svg width="30" height="30" viewBox="0 0 30 30" fill="none" xmlns="http://www.w3.org/2000/svg">
<path d="M30 15C30 23.2835 23.2854 30 15 30C6.71464 30 0 23.2854 0 15C0 6.71464 6.71464 0 15 0C23.2854 0 30 6.71464 30 15ZM28.6258 15.0018C28.6258 7.47153 22.5211 1.36681 14.9908 1.36681C7.4605 1.36681 1.35579 7.47153 1.35579 15.0018C1.35579 22.5322 7.4605 28.6369 14.9908 28.6369C22.5211 28.6369 28.6258 22.5322 28.6258 15.0018Z" fill="#173945"/>
<path d="M15.5369 14.0772H22.4261C22.4738 14.0772 22.8541 14.2665 22.8945 14.3859L22.6098 15.3632H15.8125C15.1401 16.0136 15.7316 17.136 15.7206 17.8433C15.7151 18.1979 15.5351 18.5469 15.5277 18.9382C15.5167 19.6106 15.7482 22.3461 15.2393 22.5151C14.9178 22.6216 14.2491 22.302 14.2491 22.0687V15.3632H7.35993C6.82533 15.3632 6.82533 14.0772 7.35993 14.0772H14.2491V7.18808C14.2491 6.6443 15.074 6.54509 15.4487 6.90884C16.0642 7.5059 15.6122 12.9088 15.5351 14.0772H15.5369Z" fill="#173945"/>
</svg>
